<svg xmlns="http://www.w3.org/2000/svg"  viewBox="0 0 40 40" width="120px" height="120px"><path fill="#98ccfd" d="M12 9A11 11 0 1 0 12 31A11 11 0 1 0 12 9Z"/><path fill="#dff0fe" d="M28 9A11 11 0 1 0 28 31A11 11 0 1 0 28 9Z"/><path fill="#4788c7" d="M28,9c6.075,0,11,4.925,11,11s-4.925,11-11,11c-3.156,0-5.994-1.337-8-3.466 C17.994,29.663,15.156,31,12,31C5.925,31,1,26.075,1,20S5.925,9,12,9c3.156,0,5.994,1.337,8,3.466C22.006,10.337,24.844,9,28,9 M28,8c-2.991,0-5.796,1.082-8,3.068C17.796,9.082,14.991,8,12,8C5.383,8,0,13.383,0,20s5.383,12,12,12 c2.991,0,5.796-1.082,8-3.068C22.204,30.918,25.009,32,28,32c6.617,0,12-5.383,12-12S34.617,8,28,8L28,8z"/><path fill="#4788c7" d="M20 11.081A4 8.919 0 1 0 20 28.919A4 8.919 0 1 0 20 11.081Z"/></svg>