<svg xmlns="http://www.w3.org/2000/svg"  viewBox="0 0 64 64" width="64px" height="64px"><linearGradient id="Rb7MiLq3pgMe4Ehrx6v1Ya" x1="18.5" x2="18.5" y1="136" y2="100" gradientTransform="matrix(1 0 0 -1 0 150)" gradientUnits="userSpaceOnUse" spreadMethod="reflect"><stop offset="0" stop-color="#6dc7ff"/><stop offset="1" stop-color="#e6abff"/></linearGradient><path fill="url(#Rb7MiLq3pgMe4Ehrx6v1Ya)" d="M23,32c0-6.645,3.629-12.447,9-15.565C29.349,14.896,26.28,14,23,14c-9.926,0-18,8.074-18,18 s8.074,18,18,18c3.28,0,6.349-0.896,9-2.435C26.629,44.447,23,38.645,23,32z"/><linearGradient id="Rb7MiLq3pgMe4Ehrx6v1Yb" x1="23" x2="23" y1="137" y2="99" gradientTransform="matrix(1 0 0 -1 0 150)" gradientUnits="userSpaceOnUse" spreadMethod="reflect"><stop offset="0" stop-color="#1a6dff"/><stop offset="1" stop-color="#c822ff"/></linearGradient><path fill="none" stroke="url(#Rb7MiLq3pgMe4Ehrx6v1Yb)" stroke-miterlimit="10" stroke-width="2" d="M23,50c-9.926,0-18-8.074-18-18 s8.074-18,18-18s18,8.074,18,18S32.926,50,23,50z"/><linearGradient id="Rb7MiLq3pgMe4Ehrx6v1Yc" x1="41" x2="41" y1="137" y2="99" gradientTransform="matrix(1 0 0 -1 0 150)" gradientUnits="userSpaceOnUse" spreadMethod="reflect"><stop offset="0" stop-color="#1a6dff"/><stop offset="1" stop-color="#c822ff"/></linearGradient><path fill="none" stroke="url(#Rb7MiLq3pgMe4Ehrx6v1Yc)" stroke-miterlimit="10" stroke-width="2" d="M41,50c-9.926,0-18-8.074-18-18 s8.074-18,18-18s18,8.074,18,18S50.926,50,41,50z"/><linearGradient id="Rb7MiLq3pgMe4Ehrx6v1Yd" x1="32" x2="32" y1="21.167" y2="43.001" gradientUnits="userSpaceOnUse" spreadMethod="reflect"><stop offset="0" stop-color="#6dc7ff"/><stop offset="1" stop-color="#e6abff"/></linearGradient><path fill="url(#Rb7MiLq3pgMe4Ehrx6v1Yd)" d="M34.936,23c-0.54-0.712-1.132-1.388-1.794-2h-2.285c-0.662,0.612-1.254,1.288-1.794,2H34.936z"/><linearGradient id="Rb7MiLq3pgMe4Ehrx6v1Ye" x1="32" x2="32" y1="21.167" y2="43.001" gradientUnits="userSpaceOnUse" spreadMethod="reflect"><stop offset="0" stop-color="#6dc7ff"/><stop offset="1" stop-color="#e6abff"/></linearGradient><path fill="url(#Rb7MiLq3pgMe4Ehrx6v1Ye)" d="M37.104,27c-0.25-0.687-0.543-1.357-0.887-2h-8.434c-0.344,0.643-0.637,1.313-0.887,2H37.104z"/><linearGradient id="Rb7MiLq3pgMe4Ehrx6v1Yf" x1="32" x2="32" y1="21.167" y2="43.001" gradientUnits="userSpaceOnUse" spreadMethod="reflect"><stop offset="0" stop-color="#6dc7ff"/><stop offset="1" stop-color="#e6abff"/></linearGradient><path fill="url(#Rb7MiLq3pgMe4Ehrx6v1Yf)" d="M37.945,31c-0.049-0.675-0.128-1.345-0.267-2H26.322c-0.139,0.655-0.218,1.325-0.267,2H37.945 z"/><linearGradient id="Rb7MiLq3pgMe4Ehrx6v1Yg" x1="32" x2="32" y1="21.167" y2="43.001" gradientUnits="userSpaceOnUse" spreadMethod="reflect"><stop offset="0" stop-color="#6dc7ff"/><stop offset="1" stop-color="#e6abff"/></linearGradient><path fill="url(#Rb7MiLq3pgMe4Ehrx6v1Yg)" d="M37.651,35c0.136-0.658,0.244-1.323,0.29-2H26.06c0.046,0.677,0.154,1.342,0.29,2H37.651z"/><linearGradient id="Rb7MiLq3pgMe4Ehrx6v1Yh" x1="32" x2="32" y1="21.167" y2="43.001" gradientUnits="userSpaceOnUse" spreadMethod="reflect"><stop offset="0" stop-color="#6dc7ff"/><stop offset="1" stop-color="#e6abff"/></linearGradient><path fill="url(#Rb7MiLq3pgMe4Ehrx6v1Yh)" d="M36.209,39c0.339-0.644,0.632-1.313,0.877-2H26.914c0.245,0.687,0.538,1.356,0.877,2H36.209z"/><linearGradient id="Rb7MiLq3pgMe4Ehrx6v1Yi" x1="32" x2="32" y1="21.167" y2="43.001" gradientUnits="userSpaceOnUse" spreadMethod="reflect"><stop offset="0" stop-color="#6dc7ff"/><stop offset="1" stop-color="#e6abff"/></linearGradient><path fill="url(#Rb7MiLq3pgMe4Ehrx6v1Yi)" d="M30.859,43h2.282c0.661-0.616,1.266-1.282,1.801-2h-5.885 C29.593,41.718,30.198,42.384,30.859,43z"/></svg>