<svg xmlns="http://www.w3.org/2000/svg"  viewBox="0 0 100 100" width="50px" height="50px"><path fill="#ee3e54" d="M13,27c-1.105,0-2,0.895-2,2s0.895,2,2,2s2-0.895,2-2S14.105,27,13,27z"/><path fill="#f1bc19" d="M77,12c-0.552,0-1,0.448-1,1s0.448,1,1,1s1-0.448,1-1S77.552,12,77,12z"/><path fill="#fce0a2" d="M50,13c-20.435,0-37,16.565-37,37s16.565,37,37,37s37-16.565,37-37S70.435,13,50,13z"/><path fill="#f1bc19" d="M83,11c-2.209,0-4,1.791-4,4s1.791,4,4,4s4-1.791,4-4S85.209,11,83,11z"/><path fill="#ee3e54" d="M87,22c-1.105,0-2,0.895-2,2s0.895,2,2,2s2-0.895,2-2S88.105,22,87,22z"/><path fill="#fbcd59" d="M81,74c-1.105,0-2,0.895-2,2s0.895,2,2,2s2-0.895,2-2S82.105,74,81,74z M15,59c-2.209,0-4,1.791-4,4 c0,2.209,1.791,4,4,4s4-1.791,4-4C19,60.791,17.209,59,15,59z"/><path fill="#ee3e54" d="M25,85c-1.105,0-2,0.895-2,2s0.895,2,2,2s2-0.895,2-2S26.105,85,25,85z"/><path fill="#fff" d="M18.5,51c-1.381,0-2.5,1.119-2.5,2.5s1.119,2.5,2.5,2.5s2.5-1.119,2.5-2.5S19.881,51,18.5,51z"/><path fill="#f1bc19" d="M21,66c-0.552,0-1,0.448-1,1s0.448,1,1,1s1-0.448,1-1S21.552,66,21,66z"/><path fill="#fff" d="M80,33c-0.552,0-1,0.448-1,1s0.448,1,1,1s1-0.448,1-1S80.552,33,80,33z"/><path fill="#678c26" d="M35,72.3c-4,0-7.3-3.3-7.3-7.3V35c0-4,3.3-7.3,7.3-7.3h30c4,0,7.3,3.3,7.3,7.3v30	c0,4-3.3,7.3-7.3,7.3H35z"/><path fill="#472b29" d="M65,28.4c3.6,0,6.6,3,6.6,6.6v30c0,3.6-3,6.6-6.6,6.6H35c-3.6,0-6.6-3-6.6-6.6V35	c0-3.6,3-6.6,6.6-6.6H65 M65,27H35c-4.4,0-8,3.6-8,8v30c0,4.4,3.6,8,8,8h30c4.4,0,8-3.6,8-8V35C73,30.6,69.4,27,65,27L65,27z"/><path fill="#472b29" d="M68.5,47.4c-0.3,0-0.5-0.2-0.5-0.5V43c0-0.3,0.2-0.5,0.5-0.5S69,42.7,69,43v3.9	C69,47.2,68.8,47.4,68.5,47.4z M68.5,40.5c-0.3,0-0.5-0.2-0.5-0.5v-2c0-0.3,0.2-0.5,0.5-0.5S69,37.7,69,38v2	C69,40.3,68.8,40.5,68.5,40.5z"/><path fill="#472b29" d="M64,69H36c-2.8,0-5-2.2-5-5V36c0-2.8,2.2-5,5-5h25.4c0.3,0,0.5,0.2,0.5,0.5S61.7,32,61.4,32H36	c-2.2,0-4,1.8-4,4v28c0,2.2,1.8,4,4,4h28c2.2,0,4-1.8,4-4V49.6c0-0.3,0.2-0.5,0.5-0.5s0.5,0.2,0.5,0.5V64C69,66.8,66.8,69,64,69z"/><g><path fill="#fff" d="M50.08,41.017c0.008,0,0.021,0.008,0.025,0.013c2.242,1.704,6.083,5.925,4.912,7.117 C53.696,49.3,51.967,50,50.08,50c-1.892,0-3.617-0.7-4.938-1.854c-1.171-1.192,2.671-5.412,4.913-7.117 C50.059,41.021,50.071,41.017,50.08,41.017z"/><path fill="#fff" d="M53.984,36.096C52.838,35.417,51.592,35,50.08,35c-1.512,0-2.758,0.417-3.908,1.096 c-0.012,0.008-0.021,0.025-0.012,0.038c0.004,0.012,0.021,0.017,0.037,0.012c1.454-0.312,3.658,0.942,3.867,1.067 c0.004,0.004,0.008,0.004,0.017,0.004s0.013-0.004,0.017-0.004c0.208-0.125,2.417-1.379,3.867-1.067 c0.017,0.004,0.029,0,0.037-0.012C54.005,36.121,54.001,36.104,53.984,36.096z"/><path fill="#fff" d="M44.83,37.15c-0.012,0.008-0.025,0.017-0.033,0.025c-1.371,1.362-2.217,3.242-2.217,5.325 c0,1.708,0.571,3.283,1.533,4.546c0.008,0.013,0.025,0.021,0.042,0.013c0.013-0.008,0.013-0.025,0.008-0.038 c-0.575-1.771,2.35-6.058,3.858-7.854c0.004-0.004,0.008-0.013,0.008-0.021c0-0.013-0.004-0.017-0.013-0.025 C45.73,36.846,44.955,37.088,44.83,37.15z"/><path fill="#fff" d="M52.138,39.121c-0.008,0.004-0.013,0.013-0.013,0.025c0,0.008,0.004,0.017,0.008,0.021 c1.508,1.796,4.433,6.083,3.862,7.85c-0.004,0.013-0.004,0.029,0.008,0.037c0.012,0.008,0.029,0,0.042-0.012 c0.963-1.263,1.533-2.833,1.533-4.546c0-2.083-0.85-3.963-2.217-5.321c-0.008-0.008-0.021-0.021-0.033-0.025 C55.201,37.088,54.426,36.846,52.138,39.121z"/><g><path fill="#fff" d="M47.86,52.423h-0.949l-2.147,5.499h0.87l0.532-1.424h2.438l0.532,1.424h0.87L47.86,52.423z M46.436,55.764l0.949-2.517l0.949,2.517H46.436z"/><path fill="#fff" d="M44.325,55.023v1.011v1.888l0,0h-0.791v-0.719c-0.205,0.277-0.453,0.489-0.748,0.629 c-0.298,0.144-0.647,0.216-1.036,0.216c-0.396,0-0.755-0.068-1.068-0.198c-0.313-0.133-0.59-0.334-0.824-0.597 c-0.237-0.263-0.421-0.568-0.539-0.913c-0.119-0.345-0.18-0.737-0.18-1.162c0-0.432,0.061-0.827,0.18-1.172 c0.119-0.345,0.302-0.651,0.543-0.91c0.237-0.263,0.521-0.46,0.842-0.59s0.687-0.198,1.09-0.198c0.672,0,1.233,0.176,1.676,0.525 c0.435,0.352,0.701,0.831,0.788,1.413v0.011h-0.863V54.25c-0.076-0.367-0.259-0.658-0.547-0.874 c-0.288-0.212-0.64-0.32-1.046-0.32c-0.543,0-0.982,0.194-1.302,0.575c-0.327,0.378-0.489,0.899-0.489,1.55 c0,0.651,0.165,1.172,0.489,1.55c0.331,0.381,0.773,0.575,1.32,0.575c0.475,0,0.877-0.151,1.205-0.446 c0.324-0.288,0.496-0.662,0.514-1.111h-1.618v-0.716h2.406V55.023z"/><polygon fill="#fff" points="57.771,53.178 57.771,54.771 60.504,54.771 60.504,55.472 57.771,55.472 57.771,57.166 60.86,57.166 60.86,57.921 56.933,57.921 56.933,52.423 60.86,52.423 60.86,53.178"/><path fill="#fff" d="M56.092,52.423v5.499h-0.809v-4.366c-0.104,0.306-0.245,0.687-0.417,1.133l-1.241,3.233H52.92 l-0.004-0.004l-1.255-3.226c-0.151-0.399-0.288-0.773-0.406-1.115v4.344h-0.809v-5.499H51.6l1.126,2.924 c0.227,0.593,0.414,1.104,0.554,1.525c0.165-0.5,0.356-1.039,0.561-1.6l1.086-2.845h1.165V52.423z"/></g><g><path fill="#fff" d="M44.525,59.843c-0.327-0.309-0.798-0.467-1.392-0.467h-2.341v5.499h0.842v-2.025h1.5 c0.593,0,1.064-0.158,1.392-0.467c0.327-0.309,0.496-0.737,0.496-1.266C45.018,60.58,44.852,60.152,44.525,59.843z M43.895,61.853 c-0.176,0.169-0.439,0.255-0.78,0.255H41.63v-1.992h1.485c0.342,0,0.604,0.086,0.78,0.259s0.266,0.421,0.266,0.741 C44.162,61.436,44.072,61.684,43.895,61.853z"/><path fill="#fff" d="M54.317,63.349c0,0.507-0.191,0.913-0.568,1.208C53.371,64.849,52.843,65,52.177,65 c-0.723,0-1.291-0.165-1.694-0.496c-0.403-0.327-0.611-0.816-0.615-1.446v-0.007h0.842v0.007c0.007,0.406,0.137,0.716,0.381,0.917 c0.245,0.201,0.619,0.306,1.104,0.306c0.403,0,0.716-0.079,0.931-0.234c0.216-0.155,0.324-0.381,0.324-0.676 c0-0.237-0.09-0.424-0.266-0.55c-0.176-0.129-0.503-0.248-0.967-0.349l-0.471-0.101c-0.565-0.111-0.996-0.298-1.28-0.557 c-0.288-0.255-0.435-0.615-0.435-1.068c0-0.453,0.176-0.82,0.525-1.09c0.349-0.27,0.827-0.406,1.42-0.406 c0.716,0,1.266,0.155,1.625,0.464c0.363,0.309,0.55,0.737,0.561,1.277v0.007h-0.831V60.99c-0.025-0.349-0.144-0.611-0.349-0.777 s-0.543-0.248-1-0.248c-0.356,0-0.633,0.068-0.82,0.198c-0.187,0.129-0.281,0.32-0.281,0.565c0,0.248,0.083,0.439,0.252,0.565 c0.169,0.137,0.482,0.255,0.935,0.352l0.478,0.101c0.626,0.133,1.079,0.327,1.356,0.579 C54.181,62.576,54.317,62.921,54.317,63.349z"/><path fill="#fff" d="M59.208,63.349c0,0.507-0.191,0.913-0.568,1.208C58.262,64.849,57.734,65,57.068,65 c-0.723,0-1.291-0.165-1.694-0.496c-0.403-0.327-0.611-0.816-0.615-1.446v-0.007h0.842v0.007c0.007,0.406,0.137,0.716,0.381,0.917 c0.245,0.201,0.619,0.306,1.104,0.306c0.403,0,0.716-0.079,0.931-0.234c0.216-0.155,0.324-0.381,0.324-0.676 c0-0.237-0.09-0.424-0.266-0.55c-0.176-0.129-0.503-0.248-0.967-0.349l-0.471-0.101c-0.565-0.111-0.996-0.298-1.28-0.557 c-0.288-0.255-0.435-0.615-0.435-1.068c0-0.453,0.176-0.82,0.525-1.09s0.827-0.406,1.42-0.406c0.716,0,1.266,0.155,1.625,0.464 c0.363,0.309,0.55,0.737,0.561,1.277v0.007h-0.831V60.99c-0.025-0.349-0.144-0.611-0.349-0.777c-0.205-0.165-0.543-0.248-1-0.248 c-0.356,0-0.633,0.068-0.82,0.198c-0.187,0.129-0.281,0.32-0.281,0.565c0,0.248,0.083,0.439,0.252,0.565 c0.169,0.137,0.482,0.255,0.935,0.352l0.478,0.101c0.626,0.133,1.079,0.327,1.356,0.579 C59.071,62.576,59.208,62.921,59.208,63.349z"/><path fill="#fff" d="M47.531,59.376h-0.949l-2.147,5.499h0.87l0.532-1.424h2.438l0.529,1.424h0.87L47.531,59.376z M46.104,62.716l0.949-2.517l0.949,2.517H46.104z"/></g></g></svg>