<svg xmlns="http://www.w3.org/2000/svg"  viewBox="0 0 64 64" width="96px" height="96px"><linearGradient id="PYUu95M9JZx7Onab425sGa" x1="32" x2="32" y1="9.146" y2="49.384" gradientUnits="userSpaceOnUse"><stop offset="0" stop-color="#6dc7ff"/><stop offset="1" stop-color="#e6abff"/></linearGradient><path fill="url(#PYUu95M9JZx7Onab425sGa)" d="M40.71,21.691l-1.492-1.875l1.615-1.481c2.108-1.934,3.571-3.092,5.151-4.076 c0.846-0.527,1.932-1.007,2.785-1.265c-1.68-1.519-3.568-2.81-5.612-3.835c-2.415,0.148-5.598,1.122-8.985,2.769 c-1.178,0.574-2.202,1.031-2.278,1.019c-0.075-0.015-1.035-0.482-2.136-1.04l0.002,0c-2.188-1.11-5.562-2.301-7.426-2.622 c-0.42-0.072-1.028-0.121-1.6-0.139c-2.041,1.02-3.926,2.307-5.605,3.819c0.181,0.052,0.378,0.115,0.615,0.195 c1.935,0.655,4.004,2.083,7.213,4.984l1.875,1.694l-1.025,1.255c-4.749,5.827-9.762,14.091-11.648,19.202 c-0.71,1.923-1.117,3.839-1.159,5.229c0.925,1.389,1.981,2.683,3.156,3.86c-0.001-0.045-0.008-0.084-0.008-0.13 c0-3.149,3.464-8.664,9.391-14.95c3.365-3.571,8.053-7.755,8.561-7.642c0.986,0.22,8.867,7.903,11.818,11.52 c3.761,4.609,5.88,8.544,5.991,10.991c1.152-1.18,2.187-2.474,3.091-3.861c-0.052-1.173-0.345-2.678-0.844-4.199 C50.612,36.405,45.45,27.646,40.71,21.691z"/><linearGradient id="PYUu95M9JZx7Onab425sGb" x1="32" x2="32" y1="6" y2="58" gradientUnits="userSpaceOnUse"><stop offset="0" stop-color="#1a6dff"/><stop offset="1" stop-color="#c822ff"/></linearGradient><path fill="url(#PYUu95M9JZx7Onab425sGb)" d="M32,58C17.663,58,6,46.336,6,32S17.663,6,32,6s26,11.664,26,26S46.337,58,32,58z M32,8 C18.767,8,8,18.767,8,32s10.767,24,24,24s24-10.767,24-24S45.233,8,32,8z"/></svg>