<svg xmlns="http://www.w3.org/2000/svg"  viewBox="0 0 64 64" width="96px" height="96px"><linearGradient id="89H9Y9P9Ndp4awB_OF01oa" x1="6.366" x2="6.366" y1="23.17" y2="38.651" gradientUnits="userSpaceOnUse"><stop offset="0" stop-color="#6dc7ff"/><stop offset="1" stop-color="#e6abff"/></linearGradient><path fill="url(#89H9Y9P9Ndp4awB_OF01oa)" d="M10.732,22.829H8.237c-0.552,0-1,0.447-1,1v4.167l-1.817-4.422 c-0.154-0.375-0.52-0.62-0.925-0.62H2c-0.552,0-1,0.447-1,1v16.217c0,0.294,0.129,0.573,0.354,0.763 C1.536,41.088,1.765,41.171,2,41.171c0.055,0,0.11-0.005,0.165-0.014c1.32-0.221,2.094-0.307,2.425-0.344 c1.051-0.117,1.06-0.912,1.051-1.07c-0.004-0.071-0.026-0.273-0.146-0.473v-3.093c0.503,1.267,1.021,2.567,1.44,3.615 c0.153,0.384,0.524,0.629,0.928,0.629c0.047,0,0.095-0.003,0.142-0.01c0.82-0.117,1.75-0.234,2.687-0.352l0.165-0.021 c0.5-0.063,0.876-0.488,0.876-0.992V23.829C11.732,23.276,11.284,22.829,10.732,22.829z"/><linearGradient id="89H9Y9P9Ndp4awB_OF01ob" x1="31.938" x2="31.938" y1="23.17" y2="38.651" gradientUnits="userSpaceOnUse"><stop offset="0" stop-color="#6dc7ff"/><stop offset="1" stop-color="#e6abff"/></linearGradient><path fill="url(#89H9Y9P9Ndp4awB_OF01ob)" d="M50.648,22.829h-2.495c-0.552,0-1,0.447-1,1v12.007c-0.044-0.475-0.421-0.858-0.905-0.902 c-1.04-0.095-2.203-0.194-3.332-0.234v-10.87c0-0.553-0.448-1-1-1h-2.495c-0.375,0-0.702,0.206-0.873,0.512 c-0.171-0.306-0.498-0.512-0.873-0.512H30.69c-0.236,0-0.453,0.082-0.624,0.219c-0.171-0.137-0.388-0.219-0.624-0.219h-7.484 c-0.333,0-0.629,0.163-0.811,0.414c-0.182-0.251-0.478-0.414-0.811-0.414h-7.11c-0.552,0-1,0.447-1,1v14.969 c0,0.283,0.12,0.554,0.331,0.743c0.185,0.166,0.423,0.257,0.669,0.257c0.035,0,0.07-0.002,0.104-0.006l7.111-0.748 c0.509-0.054,0.895-0.482,0.895-0.994v-2.495c0-0.279-0.117-0.547-0.323-0.736c-0.186-0.17-0.427-0.264-0.677-0.264 c-0.028,0-0.055,0.001-0.083,0.004c-0.374,0.031-0.748,0.054-1.124,0.077c-0.779,0.049-1.576,0.099-2.409,0.217v-1.291h2.742 c0.552,0,1-0.447,1-1v-2.495c0-0.553-0.448-1-1-1h-2.742v-1.67c0.553,0.02,1.112,0.021,1.354,0.021 c0.569,0,1.947-0.011,2.458-0.113c0.255-0.051,0.471-0.196,0.614-0.396c0.182,0.252,0.478,0.415,0.811,0.415h1.495v10.477 c0,0.553,0.448,1,1,1c0.908,0,1.693,0,2.637-0.135c0.493-0.071,0.858-0.492,0.858-0.99V27.324h1.495 c0.085,0,0.168-0.011,0.248-0.031v10.258c0,0.553,0.448,1,1,1h2.495c0.552,0,1-0.447,1-1v-3.989h2.368c0.552,0,1-0.447,1-1v-2.495 c0-0.553-0.448-1-1-1h-2.368v-1.742h3.491c0.296,0,0.563-0.129,0.746-0.334v10.811c0,0.531,0.415,0.969,0.945,0.998 c2.186,0.121,4.445,0.246,6.681,0.495c0.037,0.004,0.074,0.006,0.111,0.006c0.245,0,0.482-0.09,0.667-0.255 c0.188-0.169,0.305-0.401,0.329-0.651v0.03c0,0.497,0.366,0.919,0.858,0.99c0.459,0.065,0.886,0.099,1.312,0.132 c0.384,0.029,0.769,0.059,1.183,0.118c0.047,0.007,0.095,0.01,0.142,0.01c0.239,0,0.472-0.086,0.655-0.244 c0.219-0.19,0.345-0.466,0.345-0.756V23.829C51.648,23.276,51.201,22.829,50.648,22.829z"/><linearGradient id="89H9Y9P9Ndp4awB_OF01oc" x1="57.384" x2="57.384" y1="23.17" y2="38.651" gradientUnits="userSpaceOnUse"><stop offset="0" stop-color="#6dc7ff"/><stop offset="1" stop-color="#e6abff"/></linearGradient><path fill="url(#89H9Y9P9Ndp4awB_OF01oc)" d="M62.923,39.786c-1.084-2.602-2.087-5.241-2.973-7.569l-0.237-0.622 c0.649-1.458,1.25-2.895,1.884-4.408c0.391-0.934,0.786-1.877,1.197-2.839c0.133-0.309,0.101-0.663-0.084-0.944 c-0.185-0.28-0.499-0.449-0.835-0.449h-2.745c-0.414,0-0.785,0.255-0.934,0.642c-0.269,0.7-0.515,1.307-0.758,1.891 c-0.23-0.615-0.465-1.227-0.752-1.917c-0.155-0.372-0.52-0.615-0.923-0.615h-2.745c-0.332,0-0.642,0.165-0.828,0.439 s-0.224,0.624-0.101,0.932c0.379,0.946,0.739,1.894,1.103,2.847c0.541,1.419,1.098,2.883,1.729,4.381 c-0.499,1.121-0.975,2.241-1.451,3.362c-0.528,1.24-1.055,2.481-1.614,3.723c-0.129,0.286-0.116,0.617,0.036,0.893 c0.151,0.274,0.423,0.463,0.734,0.508l2.62,0.374c0.047,0.007,0.095,0.01,0.142,0.01c0.409,0,0.783-0.251,0.933-0.641 c0.297-0.771,0.589-1.416,0.898-2.096c0.017,0.041,0.035,0.083,0.052,0.125c0.305,0.733,0.611,1.466,0.917,2.321 c0.125,0.35,0.433,0.602,0.8,0.654c0.441,0.063,0.946,0.126,1.451,0.189c0.493,0.062,0.987,0.123,1.418,0.186 c0.047,0.007,0.095,0.01,0.142,0.01c0.307,0,0.6-0.141,0.791-0.388C63.011,40.499,63.062,40.118,62.923,39.786z"/><linearGradient id="89H9Y9P9Ndp4awB_OF01od" x1="32" x2="32" y1="22.149" y2="39.039" gradientUnits="userSpaceOnUse"><stop offset="0" stop-color="#1a6dff"/><stop offset="1" stop-color="#c822ff"/></linearGradient><path fill="url(#89H9Y9P9Ndp4awB_OF01od)" d="M63.846,39.401c-1.081-2.596-2.085-5.235-2.97-7.563l-0.082-0.215	c0.59-1.338,1.144-2.662,1.725-4.051c0.378-0.903,0.76-1.815,1.157-2.744c0.129-0.264,0.201-0.561,0.201-0.875	c0-1.105-0.893-2-1.997-2h-0.005h-2.744c-0.69,0-1.321,0.355-1.684,0.921c-0.363-0.567-0.995-0.921-1.684-0.921h-2.744	c-0.397,0-0.778,0.118-1.1,0.33c-0.345-0.284-0.788-0.455-1.27-0.455h-2.495c-1.105,0-2,0.895-2,2v10.091	c-0.709-0.064-1.469-0.128-2.237-0.174V23.83c0-1.105-0.895-2-2-2h-2.495c-0.313,0-0.609,0.072-0.873,0.2	c-0.264-0.128-0.56-0.2-0.873-0.2H30.69c-0.218,0-0.427,0.035-0.624,0.099c-0.196-0.064-0.406-0.099-0.624-0.099h-7.484	c-0.289,0-0.563,0.061-0.811,0.171c-0.248-0.11-0.522-0.171-0.811-0.171h-7.11c-0.472,0-0.905,0.163-1.247,0.437	c-0.342-0.273-0.776-0.437-1.247-0.437H8.237c-0.88,0-1.628,0.569-1.895,1.358c-0.31-0.747-1.039-1.234-1.847-1.234H2	c-1.105,0-2,0.895-2,2V40.17c0,0.588,0.259,1.146,0.707,1.526C1.071,42.005,1.53,42.17,2,42.17c0.109,0,0.219-0.009,0.329-0.027	c1.293-0.216,2.049-0.299,2.371-0.335c0.906-0.101,1.417-0.549,1.685-1.038c0.374,0.41,0.909,0.652,1.477,0.652	c0.094,0,0.189-0.007,0.284-0.02c0.862-0.123,1.847-0.246,2.832-0.369c0.451-0.056,0.852-0.26,1.156-0.559	c0.324,0.212,0.704,0.325,1.093,0.325c0.07,0,0.14-0.004,0.209-0.011l6.966-0.733l0.144-0.015c1.018-0.107,1.791-0.966,1.791-1.989	v-2.495c0-0.559-0.234-1.093-0.646-1.472c-0.174-0.16-0.374-0.287-0.588-0.376c0.227-0.325,0.361-0.72,0.361-1.146v-2.495	c0-0.745-0.407-1.394-1.01-1.738c0.106-0.013,0.198-0.027,0.276-0.043c0.146-0.029,0.286-0.074,0.418-0.133	c0.248,0.11,0.522,0.171,0.811,0.171h0.495V37.8c0,1.105,0.895,2,2,2c0.907,0,1.764,0,2.778-0.145	c0.764-0.109,1.375-0.641,1.612-1.338c0.301,0.724,1.015,1.233,1.848,1.233h0.748h1.746c1.105,0,2-0.895,2-2v-2.99h1.368	c0.311,0,0.606-0.071,0.869-0.198V37.8c0,1.061,0.83,1.938,1.89,1.997c2.18,0.121,4.435,0.246,6.625,0.49	c0.074,0.008,0.148,0.012,0.221,0.012c0.31,0,0.614-0.072,0.89-0.209c0.241,0.16,0.52,0.27,0.823,0.313	c0.501,0.072,0.947,0.106,1.377,0.139c0.383,0.029,0.746,0.057,1.118,0.11c0.094,0.013,0.189,0.02,0.283,0.02	c0.264,0,0.525-0.052,0.767-0.153c0.294,0.27,0.666,0.449,1.07,0.507l1.008,0.144l1.612,0.23c0.095,0.014,0.19,0.02,0.284,0.02	c0.76,0,1.461-0.434,1.796-1.123c0.02,0.056,0.041,0.113,0.061,0.17c0.25,0.699,0.866,1.202,1.601,1.307	c0.447,0.064,0.958,0.128,1.469,0.192c0.487,0.061,0.974,0.122,1.4,0.182c0.095,0.013,0.189,0.02,0.283,0.02	c0.613,0,1.199-0.282,1.581-0.775C64.022,40.826,64.123,40.065,63.846,39.401z M10.732,39.048c-0.998,0.125-1.996,0.25-2.869,0.374	c-1.247-3.119-3.368-8.482-3.368-8.482s0,5.364,0,8.857c0.499,0-0.249,0-2.495,0.374c0-5.364,0-10.852,0-16.216	c0.998,0,2.495,0,2.495,0l3.742,9.106c0,0,0-5.738,0-9.231c0.873,0,1.622,0,2.495,0C10.732,28.944,10.732,33.933,10.732,39.048z M20.337,26.324c-0.312,0.062-1.279,0.094-2.261,0.094c-0.982,0-1.98-0.031-2.354-0.094c0,1.372,0,2.37,0,3.742	c1.123,0,2.62,0,3.742,0c0,0.748,0,1.746,0,2.495c-1.123,0-2.62,0-3.742,0c0,1.372,0,2.121,0,3.493	c1.622-0.374,3.118-0.374,4.615-0.499c0,0.748,0,1.746,0,2.495c-2.37,0.249-4.74,0.499-7.11,0.748c0-4.99,0-9.979,0-14.969	c2.37,0,4.74,0,7.11,0C20.337,24.578,20.337,25.576,20.337,26.324z M29.443,26.324c-0.873,0-1.622,0-2.495,0	c0,3.992,0,7.36,0,11.351C26.075,37.8,25.326,37.8,24.453,37.8c0-3.992,0-7.484,0-11.476c-0.125,0-2.37,0-2.495,0	c0-0.748,0-1.746,0-2.495c2.62,0,4.865,0,7.484,0C29.443,24.578,29.443,25.576,29.443,26.324z M37.676,26.324	c-0.624,0-4.241,0-4.491,0c0,1.247,0,2.495,0,3.742c0.125,0,2.994,0,3.368,0c0,0.748,0,1.746,0,2.495c-0.374,0-3.243,0-3.368,0	c0,1.996,0,2.994,0,4.99c-0.624,0-1.247,0-1.746,0c-0.249,0-0.499,0-0.748,0c0-4.74,0-8.981,0-13.721c2.37,0,4.615,0,6.985,0	C37.676,24.578,37.676,25.701,37.676,26.324z M46.158,38.299c-2.245-0.249-4.491-0.374-6.736-0.499c0-4.74,0-9.231,0-13.971	c0.873,0,1.622,0,2.495,0c0,4.116,0,7.734,0,11.85c1.372,0,2.869,0.125,4.241,0.25C46.158,36.678,46.158,37.551,46.158,38.299z M50.649,38.674c-0.873-0.125-1.622-0.125-2.495-0.249c0-4.865,0-9.605,0-14.595c0.873,0,1.622,0,2.495,0	C50.649,28.819,50.649,33.684,50.649,38.674z M52.649,28.551c0.374,0.977,0.763,1.974,1.184,2.99	c-0.407,0.923-0.801,1.847-1.184,2.75V28.551z M59.131,39.796c-0.624-1.746-1.247-2.994-1.871-4.74	c-0.624,1.622-1.247,2.744-1.871,4.366c-0.873-0.125-1.746-0.25-2.62-0.374c1.123-2.495,2.121-4.99,3.243-7.484	c-1.123-2.62-1.996-5.114-2.994-7.609c0.873,0,1.871,0,2.744,0c0.624,1.497,0.998,2.62,1.622,4.241	c0.624-1.497,1.123-2.62,1.746-4.241c0.873,0,1.871,0,2.744,0c-1.123,2.62-2.121,5.114-3.243,7.609	c0.998,2.62,2.121,5.613,3.368,8.607C61.127,40.046,60.004,39.921,59.131,39.796z"/></svg>