<svg xmlns="http://www.w3.org/2000/svg"  viewBox="0 0 64 64" width="96px" height="96px"><linearGradient id="yBwF4zptwhCagUZEjtJEYa" x1="31.936" x2="31.936" y1="60.013" y2="5.669" gradientTransform="matrix(1 0 0 -1 0 66)" gradientUnits="userSpaceOnUse"><stop offset="0" stop-color="#1a6dff"/><stop offset="1" stop-color="#c822ff"/></linearGradient><path fill="url(#yBwF4zptwhCagUZEjtJEYa)" d="M34.699,57.177l-0.539-0.711h-1.443l0.083-0.742h-0.646l-0.27-0.575	c-0.014-0.023-0.048-0.083-0.078-0.17c-0.121,0-0.231-0.002-0.34-0.008c-0.025-0.001-0.051-0.003-0.076-0.004	c-0.196,0.084-0.56,0.263-0.703,0.34c-0.089,0.072-0.184,0.147-0.279,0.222l-0.673,0.532l-1.417-0.827l0.29-0.907	c-0.044-0.153-0.088-0.347-0.094-0.562c-0.014-0.533-0.012-1.066-0.009-1.6l0.002-0.613V33.303l0.948-0.051	c0.14-0.009,0.974-0.005,3.411,0.01l1.896,0.011c0.506-0.001,1.014-0.008,1.521-0.019c0.975-0.019,1.982-0.038,2.989,0.028	c2.683,0.185,4.72,1.266,6.055,3.214c2.003,2.923,1.535,7.553-1.002,9.908c-0.509,0.473-1.125,0.865-1.821,1.165l4.948,6.452	l-1.28,0.245c-0.041,0.234-0.128,0.53-0.365,0.808l-0.657,0.768l-0.214-0.187l-0.458,0.931l-0.618-0.844l-0.554,0.07l-0.087-0.998	l-0.037,1.002l-0.827,0.02l-0.284,0.495l-1.405-0.41l-0.147-0.423l-0.747,0.128V54.96l-0.74-0.338	c-0.254-0.103-0.602-0.243-0.833-0.592c-0.403-0.605-0.791-1.221-1.18-1.836l-0.572-0.902c-0.081-0.126-0.161-0.252-0.243-0.379	v5.657L34.699,57.177z M33.58,53.684c0.254,0,0.465,0.074,0.621,0.162V47.07l1.5-0.57l0.447,0.643	c0.069,0.098,0.11,0.155,0.147,0.216l0.245,0.38c0.533,0.825,1.065,1.65,1.594,2.478l0.578,0.912	c0.072,0.114,0.145,0.229,0.218,0.344c0.029-0.053,0.061-0.105,0.095-0.159l0.616-0.954l0.87,0.73	c0.101,0.067,0.429,0.293,0.496,0.754c0.015,0.107,0.029,0.214,0.044,0.321l0.723,0.147v0.104l0.005-0.001	c0.149-0.028,0.284-0.052,0.421-0.062c0.556-0.039,1.09-0.078,1.521,0.331c0.121,0.115,0.207,0.238,0.268,0.369l0.083-0.148	l-4.976-6.489l1.535-0.338c0.935-0.206,1.762-0.609,2.33-1.138c1.831-1.7,2.171-5.187,0.713-7.314	c-0.986-1.438-2.471-2.205-4.539-2.347c-0.92-0.064-1.84-0.045-2.811-0.024c-0.523,0.011-1.037,0.023-1.571,0.019l-1.898-0.011	c-0.832-0.005-1.703-0.01-2.343-0.013L30.51,52.175c-0.002,0.332-0.004,0.664-0.001,0.997c0.264-0.113,0.52-0.2,0.691-0.205	c0.124-0.004,0.249,0.002,0.374,0.008c0.08,0.005,0.159,0.017,0.244,0.004c0.601-0.084,1.089,0.036,1.447,0.362	c0.092,0.084,0.191,0.197,0.275,0.345C33.553,53.684,33.567,53.684,33.58,53.684z M34.245,45.022v-7.469l1.513,0.034	c1.255,0.014,2.677,0.028,3.899,1.139c0.417,0.377,0.724,0.909,0.822,1.421c0.308,1.632,0.349,3.881-2.832,4.585	c-0.555,0.123-1.104,0.146-1.636,0.169c-0.224,0.01-0.453,0.019-0.685,0.037L34.245,45.022z M36.248,39.597v3.292	c0.345-0.018,0.672-0.044,0.964-0.109c1.33-0.294,1.585-0.737,1.298-2.26c-0.013-0.065-0.095-0.217-0.201-0.312	C37.778,39.724,37.151,39.624,36.248,39.597z M23.507,30.741l-1.916-2.165h-1.395v-0.731l-0.602-0.047l-0.521-0.652	c-0.092-0.001-0.185,0.002-0.271-0.002l0.002,0.027l-0.401,0.171c0.004,0.165-0.006,0.372-0.074,0.59	c-0.073,0.233-0.19,0.409-0.268,0.526l-0.898,1.529l-0.893-1.486c-0.138-0.197-0.338-0.487-0.341-0.893	c-0.009-5.461-0.008-10.916-0.006-16.371l0.002-2.896c0.002-0.297,0.004-0.594-0.006-0.89c-0.017-0.426,0.104-0.775,0.357-1.037	c0.251-0.259,0.595-0.391,1.019-0.391c0.005,0,0.009,0,0.014,0l1.134,0.009c2.302,0.019,4.607,0.039,6.906,0.017	c1.455-0.007,2.732,0.19,3.89,0.628c2.482,0.936,4.007,2.766,4.409,5.292c0.337,2.111,0.036,3.892-0.919,5.441	c-0.74,1.199-1.717,2.058-2.915,2.562l5.067,6.437l-1.464,0.11c-0.038,0.117-0.085,0.213-0.12,0.284l-0.442,1.209l-0.67-0.424	l-0.659,0.855l-0.397-0.507l-1.069,0.008v1.496l-1.667-1.479c-0.093-0.081-0.189-0.154-0.281-0.225	c-0.239-0.182-0.525-0.399-0.736-0.717l-0.096,0.249l-1.055-0.527c-0.222-0.102-0.536-0.245-0.749-0.574	c-0.431-0.657-0.857-1.323-1.283-1.99c-0.241-0.377-0.482-0.755-0.725-1.131c0.003,0.222,0.005,0.442,0.007,0.66	c0.016,1.541,0.033,3.216,0.033,4.392v2.643H23.507z M18.129,27.46l-0.013,0.006C18.12,27.464,18.124,27.462,18.129,27.46z M20.987,25.9l0.506,0.039c-0.006-0.722-0.014-1.481-0.022-2.211c-0.049-4.756-0.049-4.756,0.775-4.938l0.665-0.147l0.921,1.353	c0.369,0.537,0.762,1.11,1.06,1.568c0.333,0.513,0.66,1.026,0.989,1.54c0.114,0.179,0.228,0.357,0.342,0.536	c0.009-0.015,0.018-0.028,0.025-0.042c0.028-0.046,0.058-0.092,0.082-0.139l0.386-0.734l1.521,0.482l0.179,0.964l0.711-0.165v0.568	c0.118-0.017,0.224-0.021,0.305-0.024l0.309-0.018c0.684-0.038,1.049,0.191,1.248,0.394c0.092,0.094,0.191,0.224,0.265,0.396h0.016	c0.046-0.027,0.096-0.052,0.148-0.072l-4.83-6.135l1.113-0.544l0.44,0.898L27.74,18.55l0.14-0.077l0.242-0.067	c1.252-0.242,2.203-0.911,2.901-2.043c0.703-1.141,0.909-2.437,0.647-4.078c-0.291-1.827-1.318-3.049-3.14-3.735	c-0.921-0.347-1.932-0.485-3.163-0.499c-2.314,0.021-4.627,0.002-6.941-0.017L17.929,8.03c0,0.108-0.001,0.217-0.001,0.325	l-0.002,2.883c-0.001,4.636-0.002,9.272,0.003,13.908c0.133-0.009,0.247-0.002,0.327,0.004c0.416-0.012,0.779-0.006,1.142,0h0.256	c0.279-0.003,0.712-0.011,1.067,0.343C20.85,25.62,20.933,25.757,20.987,25.9z M23.315,17.396c-0.262,0-0.519-0.008-0.769-0.02	c-1.037-0.045-1.026-0.754-0.997-2.857l0.007-0.701l-0.003-3.201l0.585-0.268c0.179-0.082,0.386-0.126,0.715-0.111	c0.995,0.002,2.057,0.042,3.119,0.494c1.264,0.539,1.919,1.572,1.948,3.071c0.028,1.409-0.612,2.475-1.853,3.079	C25.226,17.295,24.245,17.396,23.315,17.396z M23.56,13.82c0,0.188-0.004,0.446-0.008,0.727c-0.003,0.229-0.007,0.549-0.009,0.847	c0.597-0.015,1.199-0.089,1.645-0.308c0.538-0.262,0.742-0.61,0.73-1.242c-0.016-0.81-0.281-1.079-0.732-1.271	c-0.509-0.217-1.057-0.293-1.628-0.32L23.56,13.82L23.56,13.82L23.56,13.82z M58.951,57.74l-1.309-1.639l-0.023,0.548h-3.178v-1.312	c-0.103,0.096-0.229,0.185-0.381,0.251l-0.017,0.115l-1.506,0.989l-0.074-0.184v0.134H49.34l-0.03-3.148	c-0.022-0.548-0.043-1.096-0.043-1.643c-0.005-4.376-0.005-8.753-0.004-13.13v-5.477h13.39l0.094,6.765l-1.021-0.006	c-0.001,0-3.031-0.019-4.834-0.021v1.959h5.569v6.75h-5.574v1.794h6.134l-0.155,1.135c-0.04,0.295-0.03,0.611-0.019,0.946	c0.015,0.452,0.031,0.965-0.077,1.512l-0.283,1.424L60.691,54.4c-0.044,0.161-0.127,0.322-0.271,0.474	c-0.318,0.331-0.71,0.367-1.048,0.345c-0.006,0.111-0.017,0.224-0.036,0.337L58.951,57.74z M54.199,55.241c-0.003,0-0.006,0-0.009,0	C54.193,55.241,54.196,55.241,54.199,55.241z M54.777,53.232c0.111,0,0.222,0,0.334,0.001l1.332,0.001v0.876	c0.132-0.033,0.286-0.051,0.457-0.039c0.078,0.005,0.162-0.008,0.246-0.016c0.097-0.01,0.217-0.021,0.354-0.024	c0.121-0.326,0.324-0.564,0.49-0.76c0.056-0.065,0.115-0.134,0.171-0.209l0.426-0.576h-3.705v-5.794h5.574v-2.75h-5.569v-5.96h1.466	c1.103,0,3.134,0.01,4.361,0.017l-0.039-2.753h-9.411v3.478c-0.001,4.376-0.001,8.752,0.004,13.128c0,0.521,0.022,1.043,0.042,1.564	l0.002,0.062c0.074-0.022,0.16-0.039,0.258-0.044c0.68-0.024,1.315-0.028,1.7,0.158c0.251-0.228,0.577-0.34,0.847-0.349	C54.336,53.234,54.555,53.232,54.777,53.232z M60.371,53.907c-0.002,0.001-0.003,0.002-0.005,0.003	C60.368,53.909,60.369,53.908,60.371,53.907z M59.461,30.447l-1.787-2.257c-0.012,0.003-0.142,0.003-0.232,0.006l0,0	c-0.092,0.133-0.211,0.258-0.368,0.361c-0.554,0.368-1.214,0.22-1.698,0.11l-1.468-0.328l0.555-0.782	c-0.118,0.105-0.245,0.172-0.368,0.215l-0.273,0.687l-1.027-0.257l0.145,0.504h-1.886l-0.178,0.301l-1.64-0.747l0.053-0.172	l-1.859-1.382h2.013c-0.011-0.256-0.01-0.512-0.009-0.768v-0.197c-0.005-6.047-0.022-18.729-0.022-18.729L49.41,6.011l13.328,0.015	l-0.05,6.618l-5.571-0.019L57.1,14.479l5.367-0.015l0.044,6.612l-5.503-0.004l-0.001,1.679l5.9-0.038l0.005,1.002	c0,0,0.007,1.542-0.017,2.02c-0.013,0.237-0.085,0.425-0.128,0.538l-0.314,0.817l-0.891-0.098l-0.578-0.138L60.8,26.458v0.737	l-1.339,0.196V30.447z M56.516,25.943l0.637,0.256c0.023,0.003,0.146-0.001,0.236-0.002c0.022-0.001,0.045-0.002,0.069-0.002V26.07	l0.342-0.299c0.021-0.019,0.043-0.036,0.066-0.055c0.007-0.031,0.013-0.057,0.02-0.082l0.213-0.813l0.882,0.072	c0.034-0.055,0.072-0.106,0.112-0.155l-4.089,0.026l0.001-5.694l5.489,0.004l-0.017-2.604l-5.4,0.015l0.057-5.865l5.567,0.019	l0.019-2.614l-9.304-0.011c0.005,3.113,0.018,12.707,0.022,17.728v0.039c0.669-0.325,1.471-0.185,1.778-0.133l0.365,0.063	c0.849-0.532,1.748-0.402,2.079-0.352l0.857,0.125L56.516,25.943L56.516,25.943z M37.569,29.567l-0.138-0.941l-0.57,0.084	c-0.209,0.031-0.422,0.062-0.627,0.067l-0.353,0.586l-0.904-0.842c-0.355-0.276-0.431-0.61-0.431-0.841l-0.005-0.861	c-0.002-0.468-0.003-0.935-0.016-1.402c-0.007-0.29-0.017-0.72,0.195-1.151c-0.082-0.155-0.131-0.314-0.153-0.454	c-0.038-0.256-0.041-0.519-0.04-0.779L34.56,5.987L35.573,6c0.001,0,5.199,0.066,7.249,0.07c1.182,0.006,4.047-0.049,4.047-0.05	l1.014-0.019l0.039,6.604l-1.002,0.006c0,0-3.052,0.018-4.782,0.021c0.004,0.587,0.01,1.297,0.016,1.86l5.516,0.05l-0.035,6.538	l-5.503-0.019l0.001,1.661l5.889-0.06l-0.005,1.015c0,0.001-0.009,1.701-0.009,2.306v0.797l-1.628,0.386l-0.396-0.673	c-0.015-0.025-0.029-0.051-0.044-0.075v0.969h-1.376v1.105l-1.514-0.23c-0.111-0.018-0.222-0.036-0.333-0.053	c-0.06,0.093-0.125,0.167-0.187,0.225c-0.263,0.249-0.617,0.359-1.039,0.348l-0.144-0.006c-0.48-0.002-0.93-0.004-1.306-0.387	c-0.263-0.267-0.338-0.575-0.359-0.892c-0.262,0.096-0.531,0.244-0.684,0.42L37.569,29.567z M42.13,28.14c0.002,0,0.003,0,0.005,0	C42.133,28.14,42.132,28.14,42.13,28.14z M40.932,27.417c0,0.001,0,0.001,0,0.002C40.932,27.418,40.932,27.418,40.932,27.417z M40.242,25.385c0.204,0,0.4,0.022,0.58,0.068l0.629,0.159l0.128,0.721c0.271-0.176,0.529-0.198,0.704-0.188	c0.093,0.007,0.186,0.016,0.279,0.026l0.043-0.526l-0.106-0.292l0.934-0.345c0.251-0.093,0.466-0.116,0.656-0.102	c0.029-0.072,0.066-0.141,0.108-0.205l-4.066,0.041l-0.001-5.687l5.514,0.019l0.014-2.55l-5.488-0.05l-0.01-0.981	c0,0-0.03-3.169-0.03-3.861v-1h1.581c1.056,0,3.009-0.009,4.197-0.016l-0.016-2.58c-0.948,0.016-2.317,0.029-3.074,0.033	c-1.49-0.003-4.637-0.038-6.259-0.058L36.53,23.039c0,0.085-0.002,0.17,0,0.254c0.28,0.268,0.364,0.57,0.388,0.752	c0.031,0.237,0.018,0.703-0.43,1.146c0.037-0.031,0.038,0.1,0.04,0.178c0.002,0.086,0.004,0.171,0.005,0.257h2.447	C39.4,25.471,39.837,25.385,40.242,25.385z M46.159,26.159c0.004,0.002,0.007,0.004,0.011,0.005	C46.166,26.163,46.163,26.161,46.159,26.159z M35.222,24.799c0.001,0.001,0.002,0.001,0.004,0.002	C35.224,24.8,35.223,24.8,35.222,24.799z M35.075,23.773L35.075,23.773L35.075,23.773z M6.243,60.331l-0.091-4.036	c-0.001-0.063-0.014-0.125-0.023-0.184c-0.033-0.208-0.09-0.557,0.025-0.927c-0.037-0.137-0.063-0.288-0.06-0.454	c-0.016,0.003-0.033,0.006-0.051,0.01L4.69,54.947v-1.979l-0.612-0.036L3.95,52.536L3.448,52.64l-0.012-0.17L2.66,52.536v-19.26	h14.22v7.157h-6.62v1.562h6.043v6.66H10.19l-0.01,0.097l0.005,6.56L9.68,55.414c-0.001,0.122-0.006,0.244-0.02,0.363l-0.111,0.93	l-0.936-0.048c-0.17-0.009-0.457-0.024-0.535,0.012L6.243,60.331z M6.694,52.735c0.318,0.043,0.681,0.158,0.968,0.451	c0.243,0.248,0.357,0.547,0.409,0.829c0.034-0.041,0.071-0.08,0.111-0.116l0.015-5.44l0.169-1.803H14.3v-2.66H8.257v-5.562h6.621	v-3.157H4.664v14.505l0.482,0.061l0.176,0.859c0.115,0.097,0.201,0.205,0.264,0.314l1.108,0.063	C6.694,51.079,6.694,52.735,6.694,52.735z M6.969,30.224l-0.816-0.982c-0.036,0.026-0.067,0.046-0.091,0.061l-0.849,0.675	L4.632,29.06c-0.109-0.124-0.349-0.406-0.362-0.826c-0.011-0.375-0.003-0.749,0.006-1.124l0.003-0.161l-1.351,0.454v-2.228	l-1.696-0.146l0.342-0.446c-0.08-0.037-0.15-0.08-0.208-0.123c-0.236-0.174-0.517-0.514-0.515-1.148	c0.01-5.031,0.116-16.163,0.116-16.163l0.01-0.983l14.087-0.104l-0.048,7.015L8.444,13.07c0.002,0.491,0.005,1.018,0.007,1.456	c1.202,0.004,3.202,0.01,4.297,0.01h1.728v2.111c0,0.989-0.008,3.433-0.008,3.433l-0.003,0.999l-6.033-0.011	c0,1.35-0.003,3.72-0.031,4.998c0.033,0.212,0.102,0.729-0.266,1.177c-0.048,0.058-0.107,0.118-0.179,0.178	c0.002,0.094,0.009,0.188,0.015,0.282c0.011,0.18,0.022,0.36,0.019,0.54c-0.009,0.391-0.21,0.657-0.296,0.771L6.969,30.224z M4.272,26.596L4.272,26.596L4.272,26.596z M4.932,24.885c0.259,0.044,0.491,0.144,0.695,0.299c0.306,0.233,0.507,0.559,0.6,0.971	c0.051-0.076,0.109-0.142,0.174-0.197c0.038-1.821,0.027-5.849,0.027-5.89l-0.003-1.005l6.044,0.011	c0.002-0.79,0.005-1.854,0.005-2.428v-0.111c-1.737-0.001-5.02-0.014-5.02-0.014l-0.991-0.004l-0.007-0.989	c0,0-0.017-2.331-0.017-3.459v-1l6.588,0.005l0.021-2.997L2.962,8.15c-0.024,2.49-0.083,9.154-0.102,13.526l0.46,0.813	c0.106,0.187,0.172,0.362,0.229,0.523c0.015,0.04,0.026,0.078,0.042,0.112c0-0.015,0.046,0.016,0.093,0.053	c0.024,0.021,0.049,0.04,0.073,0.06l1.175,0.101V24.885z"/><linearGradient id="yBwF4zptwhCagUZEjtJEYb" x1="22.832" x2="22.832" y1="34.587" y2="3.822" gradientTransform="matrix(1 0 0 -1 0 66)" gradientUnits="userSpaceOnUse"><stop offset="0" stop-color="#8ab4ff"/><stop offset="1" stop-color="#e492ff"/></linearGradient><path fill="url(#yBwF4zptwhCagUZEjtJEYb)" d="M26.715,49.824	c-0.127-0.333-0.488-0.13-0.744-0.17c-0.095-0.015-0.196-0.013-0.292-0.002c-0.342,0.039-0.448-0.114-0.447-0.448	c0.015-3.379,0.026-6.758,0.02-10.137c-0.002-0.988,0.113-1.983-0.113-2.962c-0.338-1.464-0.69-2.925-1.022-4.391	c-0.087-0.384-0.283-0.353-0.518-0.172c-0.535,0.411-1.05,0.842-1.46,1.388c-0.826,1.099-1.495,2.323-1.682,3.655	c-0.199,1.419-0.058,2.885-0.065,4.331c-0.001,0.262,0.122,0.264,0.294,0.132c0.204-0.156,0.408-0.313,0.603-0.479	c0.21-0.179,0.266-0.14,0.315,0.135c0.109,0.619-0.163,1.014-0.659,1.318c-0.232,0.142-0.458,0.303-0.548,0.58	c-0.03,0.092-0.05,0.202,0.032,0.276c0.106,0.097,0.182-0.026,0.245-0.073c0.219-0.165,0.418-0.354,0.634-0.522	c0.086-0.067,0.198-0.229,0.296-0.003c0.135,0.312-0.033,0.99-0.307,1.209c-0.213,0.17-0.433,0.332-0.655,0.492	c-0.156,0.112-0.244,0.258-0.256,0.448c-0.006,0.094-0.042,0.208,0.05,0.27c0.1,0.068,0.183-0.016,0.256-0.079	c0.209-0.18,0.414-0.364,0.622-0.544c0.084-0.073,0.176-0.17,0.269-0.011c0.125,0.212-0.043,1.05-0.244,1.213	c-0.276,0.223-0.562,0.433-0.83,0.664c-0.171,0.147-0.188,0.38-0.055,0.523c0.118,0.128,0.243-0.064,0.364-0.135	c0.258-0.151,0.4-0.459,0.713-0.545c0.194,0.911,0.116,1.056-0.623,1.566c-0.326,0.225-0.626,0.521-0.45,1.05	c0.313-0.242,0.6-0.462,0.893-0.689c0.197,0.312,0.402,0.684,0.153,0.953c-0.492,0.53-0.97,1.174-1.868,0.98	c-0.155-0.034-0.324-0.005-0.487,0c-0.124,0.003-0.254,0.057-0.254,0.181c0,0.412-0.18,0.881,0.15,1.216	c0.419,0.425,0.892,0.797,1.345,1.185v1.801c-0.002,0.126,0,0.253-0.008,0.379c-0.002,0.029,0.005,0.049,0.008,0.073v0.601	c0,0.025-0.002,0.049-0.001,0.076c0,0.003,0.001,0.007,0.001,0.01v1.483c-0.005,0.18-0.004,0.36,0,0.54v0.624l0.007-0.004	c0,0.057,0.002,0.114,0,0.171c-0.007,0.233,0.135,0.306,0.293,0.11c0.172-0.213,0.304-0.387,0.547-0.078	c0.077,0.098,0.215,0.044,0.321,0.002c0.548-0.217,0.811-0.016,0.807,0.601c-0.007,1.006-0.007,2.013-0.002,3.019	c0.001,0.202-0.049,0.438,0.213,0.542c0.092,0,0.184,0.001,0.277,0.001c0.098-0.109,0.075-0.242,0.075-0.371	c-0.001-1.363,0.007-2.726-0.005-4.088c-0.004-0.464,0.023-0.9,0.338-1.28c0.092-0.111,0.117-0.268,0.311-0.235	c0.218,0.037,0.17,0.206,0.171,0.342c0.004,0.52-0.001,1.04-0.001,1.56c-0.001,0.717,0,1.434,0,2.206	c0.559-0.291,0.715-0.799,1.084-1.1c0.276-0.226,0.398-0.48,0.398-0.833c-0.002-1.82,0.016-3.639,0.012-5.459	c-0.001-0.421,0.147-0.726,0.468-1.004c0.326-0.283,0.665-0.566,0.914-0.93C26.874,50.618,26.858,50.2,26.715,49.824z"/></svg>